<?xml version="1.0" standalone="yes"?>
<svg xmlns="http://www.w3.org/2000/svg" width="997" height="841">
<path style="fill:#ffffff; stroke:none;" d="M0 0L0 841L997 841L997 0L0 0z"/>
<path style="fill:#fefefc; stroke:none;" d="M321 196C331.527 194.712 341.605 197.468 352 198L352 200C348.291 199.69 344.71 199.871 341 200C344.087 202.354 347.268 201.74 351 202.134C355.432 202.603 360.799 204.109 364.921 205.796C367.203 206.73 368.819 208.642 371.079 209.657C394.205 220.047 414.985 230.99 431.532 251C437.685 258.441 445.069 266.08 450.407 274.06C452.01 276.456 452.309 279.15 453.394 281.741C455.482 286.73 458.463 291.283 460.338 296.412C461.89 300.659 464.226 304.63 465.454 309C466.469 312.615 465.984 315.825 470 317C469.207 307.294 466.325 297.59 464.615 288C462.548 276.406 461.269 264.67 459.816 253C458.57 242.985 455.03 231.094 457.554 221C458.728 216.306 461.701 212.187 464 208C459.623 209.27 458.337 211.546 458 216C452.87 217.804 454.384 222.517 454.831 227C455.461 233.327 455.569 239.686 456.17 246C456.565 250.159 457.655 253.491 455 257L456 262C454.57 260.99 452.643 258.94 450.802 258.823C448.145 258.655 444.928 262.394 442 263C440.139 253.658 432.62 247.896 426.104 241.741C423.902 239.66 422.658 236.92 420.596 234.749C418.322 232.356 415.309 230.699 413.064 228.275C410.724 225.749 411.546 221.963 409.255 219.603C407.058 217.341 402.85 218.002 400 218C399.188 215.218 398.547 214.373 396 213L398 208C393.722 208.557 390.054 210.598 386 212C386.545 210.365 386.365 210.545 388 210C382.94 205.948 377.919 208.01 372.09 206.701C365.876 205.307 360.589 201.657 354 201C356.323 199.446 357.173 198.652 358 196C353.312 195.945 350.341 193.546 346 192.843C341.874 192.176 336.365 194 332 194C328.293 194 323.582 193.045 321 196z"/>
<path style="fill:#fffae9; stroke:none;" d="M288 204C303.249 202.073 319.622 200.682 335 202.17C346.078 203.242 357.014 207.498 368 208C364.269 203.094 353.81 202.354 348 201.961C344.569 201.729 341.406 200.421 338 200.104C327.728 199.149 316.292 199.385 306 200.089C300.996 200.432 291.393 200.057 288 204z"/>
<path style="fill:#f3d8a7; stroke:none;" d="M264 208C272.667 211.629 285.043 206.037 294 205.17C307.366 203.876 321.565 203.169 335 204.089C342.058 204.573 348.894 205.995 356 206C348.19 201.848 335.715 202 327 202C315.331 202 303.592 201.899 292 203.286C282.616 204.408 273.377 207.182 264 208z"/>
<path style="fill:#a5ddd0; stroke:none;" d="M508 426C507.796 432.94 512.655 438.104 515.522 444.09C516.886 446.937 517.107 450.178 518.593 452.961C520.016 455.626 522.429 457.537 524.006 460.09C527.402 465.586 530.433 473.728 532 480L537 480C535.927 485.831 538.98 488.459 541.831 493.17C544.724 497.95 547.013 504.172 552 507C552.163 509.654 552.944 511.531 554 514L557 513C557.798 516.112 559.174 518.352 561 521C562.416 520.528 562.814 520.186 564 519C565.019 522.855 566.395 525.191 570 527L570 518L572 518L573 532L576 531L576 535C579.013 534.892 582.556 541.109 583.167 544C583.585 545.982 582.372 548.088 583.5 550C585.359 553.151 590.915 552 594 552C592.823 556.519 592.958 558.596 598 559L598 528L602 528L602 559L606 560C604.465 563.6 603.725 567.167 603 571L608 570L609 575C611.585 576.005 613.104 576.98 615 579L618 578L620 582L622 582L623 579C624.08 581.734 624.002 583.358 627 584C625.55 585.608 624.949 586.064 623 587C625.487 598.403 639.275 605.933 648 612.789C670.868 630.759 696.181 647.175 723 658.27C732.323 662.127 741.407 669.067 752 667C753.515 674.116 767.417 680.571 774.001 683.084C778.595 684.838 783.376 683.78 787.83 685.299C795.302 687.845 802.443 691.832 810 694.236C818.005 696.783 826.875 697.381 835 699.475C838.636 700.411 841.383 703.434 845 704.221C848.059 704.886 851.828 703.912 855 704L851 705C853.788 706.897 855.779 706.881 859 706C857.502 705.521 857.65 705.6 856 706C858.179 704.274 860.302 703.727 863 703C865.406 706.337 868.255 705.659 872 706.63C880.922 708.943 890.817 705.404 900 705C898.626 701.695 898.265 699.512 899 696C900.504 698.673 901.465 700.981 902 704L904 704C904.258 697.986 906.532 691.958 906 686C904.707 687.923 903.858 689.84 903 692C901.814 690.964 901.396 690.661 900 690C901.987 686.43 903.767 682.902 905 679C902.02 677.51 899.976 674.736 897 673C894.488 671.535 891.511 672.009 889 670L890 669C886.852 669.264 883.908 670.26 881 669C879.15 669.202 877.85 669.202 876 669L877 667C872.981 665.801 867.183 664.467 863 665.328C860.503 665.842 858.511 667.676 856 668.091C851.813 668.783 846.406 667.814 842 668L842 666C848.578 665.39 855.488 664.209 862 663C857.093 659.511 848.021 657.178 842 657L843 654C825.579 650.358 808.424 643.138 792 636.452C762.123 624.29 732.923 610.43 706 592.485C692.893 583.748 680.125 574.677 668 564.586C663.201 560.593 657.587 553.619 651 554C646.4 545.641 636.679 540.538 630.452 533.406C627.999 530.596 626.62 527 624.458 523.985C618.54 515.729 611.638 507.751 604.999 500.054C598.29 492.275 590.142 486.056 585.03 476.816C580.673 468.94 575.778 461.527 571.333 453.715C569.355 450.24 568.185 445.643 564 445C563.747 434.51 555.464 424.417 551.306 414.999C549.506 410.923 548.676 405.621 545 403C545.798 396.537 540.778 393.703 539.31 387.985C536.051 375.286 531.377 362.87 528.192 350C526.977 345.091 525.057 341.157 525 336C520.11 337.72 521.948 343.024 518 346C518.002 342.395 518.649 338.568 518.325 335C518.112 332.656 516.75 330.467 516.934 328.09C517.255 323.96 518.997 320.408 519 316L517 316L517 320L513 320L515 307L513 310C512.225 307.8 511.973 306.331 512 304C513.635 304.545 513.455 304.365 514 306C516.357 300.331 512.782 293.804 512 288L508 288C510.293 283.588 510.097 277.333 503.855 276.332C501.267 275.917 498.485 277.446 496 278L496 272L504 272L504 264L502 264L503 270C496.943 269.524 497.611 263.926 496 259C492.862 249.406 495.939 242.462 495.999 232.999C496.037 227.049 494.297 221.343 499 217L498 224C506.344 221.231 498.992 209.43 494.701 205.649C486.075 198.047 469.23 201.79 462.558 210.093C453.447 221.432 458.532 241.014 459.831 254C461.738 273.065 467.999 290.408 471.358 309C473.314 319.828 473.07 331.265 476.011 342C477.847 348.702 481.251 353.871 483.776 360.17C485.895 365.455 487.166 372.365 488.574 378C491.607 390.137 497.736 401.424 502.424 413C504.166 417.303 504.066 423.232 508 426z"/>
<path style="fill:#fbd594; stroke:none;" d="M224 224C224.362 227.813 224.168 229.797 222 233C225.657 239.079 224 247.11 224 254C218.145 250.706 215.067 245.754 210 242L210 240C211.314 239.232 211.232 239.314 212 238C207.773 239.18 204.424 240.09 200 240C200.224 238.316 200.218 237.687 200 236C198.805 236.598 199.023 236.466 198 238C196.152 235.948 194.655 236.424 192 237C193.248 237.685 193.548 237.749 195 238L195 241L192 241C192 244.806 193.388 252.112 190.581 255.113C187.929 257.949 179.483 256.247 176 256L175 250C173.339 250.208 173.46 250.495 173 249C169.012 249.041 165.003 247.757 161.17 249.383C155.648 251.727 146.363 260.32 144.573 266.093C140.976 277.689 148.429 289.53 159 293.915C167.67 297.512 174.757 293.038 182.17 289.351C184.869 288.009 187.929 287.723 190.625 286.459C196.439 283.734 201.315 280.601 208 280C210.619 275.119 215.144 274.904 219.961 273.096C226.981 270.461 233.853 267.599 241 265.052C248.673 262.317 256.244 261.764 264 259.572C267.9 258.47 271.269 256.292 275.09 255.103C283.957 252.345 293.832 251.914 303 250.718C308.359 250.02 313.629 248.086 319.001 248.005C325.71 247.903 334.372 247.856 340.907 249.278C345.096 250.189 347.41 252.861 352 253C352.79 259.913 359.561 256.259 363.833 258.5C372.221 262.9 379.889 267.301 387 274C391.473 278.213 395.257 285.15 400 288.667C402.317 290.385 402.752 289.049 403 287L407 294C408.894 293.535 410.277 292.934 412 292C412.041 295.703 412.764 298.541 414 302C415.195 301.402 414.977 301.534 416 300C417.29 304.07 417.95 307.722 418 312C418.027 314.322 417.672 317.579 419.603 319.307C421.474 320.981 424.749 320.151 427 320C426.486 324.978 427.468 328.39 431 332C432.081 328.343 432 324.801 432 321C437.487 326.099 442.207 329.258 446 336C441.635 336.057 437.353 336.474 433 336C429.936 346.366 430.613 355.986 430.816 366.576C430.906 371.255 430.828 377.494 433.434 381.681C436.901 387.253 446.683 379.577 447.867 388.048C448.861 395.168 447.85 402.815 448.015 410C448.266 420.989 449.443 431.98 448.961 443C448.577 451.769 446.643 460.369 446.054 469C445.483 477.366 448 485.544 448 494L446 494L446 481C441.9 490.771 447.711 503.349 444.775 513.561C443.791 516.986 437.602 521.217 438.736 524.754C439.84 528.196 444.908 529.579 448 530C448.162 533.784 449.793 548.958 442 542L440 542C436.38 545.306 432.177 548.367 430.509 553.325C428.555 559.132 429.116 566.736 427.758 572.911C426.63 578.044 424.921 582.686 424.285 588C423.81 591.978 424.387 596.05 423.741 600C421.828 611.69 419.221 623.28 417.325 635C416.735 638.645 417.304 642.367 416.625 646C414.63 656.678 412.386 667.243 410.725 678C410 682.695 408.729 687.203 409.171 692C409.528 695.89 409.863 701.368 411.974 704.74C417.254 713.177 430.221 714.425 439 712.62C449.875 710.385 454.064 699.762 455.173 690C456.171 681.207 458.624 672.713 459.714 663.999C460.34 658.991 459.495 654 461.303 649.17C465.322 638.437 465.875 627.342 467.286 616C468.909 602.957 470.899 590.066 472.17 577C472.797 570.544 475.211 564.48 475.83 558C477.172 543.965 474.428 529.956 475.039 516C475.615 502.852 478.012 490.126 478.91 477C480.35 455.973 479 434.981 479 414L476 416C476 405.482 473.879 395.361 474 385C472.7 385.65 473 385.147 473 387C470.675 380.79 471 374.539 471 368L472 370C472.683 368.494 472.826 367.685 473 366L466 368C467.195 365.834 467.691 364.447 468 362C471.889 360.709 472.212 357.933 471.905 354C471.313 346.42 469.937 338.071 467.383 330.961C466.099 327.388 465.703 323.583 464.455 320.001C463.363 316.867 461.33 314.027 460.471 310.83C458.374 303.029 457.788 294.535 454.435 287C452.113 281.781 446.815 279.484 444.585 274.871C440.139 265.674 435.966 256.411 428.456 249.043C423.639 244.317 418.052 240.393 413.169 235.68C409.675 232.307 406.66 228.348 402.536 225.647C399.968 223.965 396.765 223.628 394 222.32C388.191 219.573 382.815 216.258 377.004 213.522C373.869 212.047 371.202 209.654 367.91 208.528C354.613 203.979 337.956 204 324 204C289.475 204 255.163 209.227 224 224z"/>
<path style="fill:#f8d794; stroke:none;" d="M296 224C298.963 224.01 302.194 223.765 304.857 225.314C307.359 226.77 308.509 229.565 310.383 231.652C313.083 234.659 316.295 236.514 320 238L320 207C325.382 206.575 330.579 206 336 206C327.804 202.561 316.713 206.72 308 206.406C304.842 206.292 299.39 204.823 297.028 207.742C294.327 211.08 296 219.893 296 224z"/>
<path style="fill:#fffee1; stroke:none;" d="M236 215C239.509 216.217 242.552 214.464 246 213.438C251.831 211.703 257.989 209.884 264 209C257.026 206.279 242.579 211.941 236 215z"/>
<path style="fill:#c7e5e0; stroke:none;" d="M497 208C498.223 209.195 498.42 209.316 500 210C498.777 208.805 498.58 208.684 497 208z"/>
<path style="fill:#f1d7a3; stroke:none;" d="M227 218L227 220C239.545 219.453 252.131 213.711 264 210C260.336 208.7 256.669 210.427 253 211.37C244.459 213.566 235.848 217.596 227 218z"/>
<path style="fill:#a9ddd0; stroke:none;" d="M497 209C499.394 214.266 505.167 220.048 498 224L499 217C493.895 220.142 495.936 224.749 495.996 230C496.113 240.184 492.359 248.766 495.674 259C497.248 263.86 496.692 270.551 503 270L502 264L504 264L504 272L496 272L496 278C498.257 277.702 500.745 276.435 502.996 276.537C509.594 276.836 509.695 283.53 508 288L512 288C512.502 294.144 514.868 299.801 515 306C513.814 304.965 513.396 304.661 512 304C511.606 306.566 511.699 307.753 513 310C513.685 308.752 513.749 308.452 514 307C514.851 311.34 513.104 315.553 513 320L517 320L517 316L519 316C518.984 320.469 516.784 323.945 516.511 328.09C516.355 330.456 517.622 332.689 517.942 335C518.436 338.567 518 342.4 518 346C522.274 343.519 520.628 338.562 525 336C525.034 346.044 529.604 356.379 532.401 366.015C533.564 370.021 533.75 374.506 538 376C533.656 357.222 526.678 338.716 521.756 320C516.009 298.147 512.66 275.374 509.718 253C509.016 247.659 507.705 242.35 507.171 237C506.134 226.634 507.686 214.721 497 209z"/>
<path style="fill:#edd7a5; stroke:none;" d="M371 210C374.545 213.34 378.721 214.07 382.91 216.259C388.754 219.314 393.111 223.542 400 224C393.419 216.877 380.478 211.631 371 210z"/>
<path style="fill:#fff0da; stroke:none;" d="M230 217C232.164 217.676 233.732 217.387 236 217C233.677 216.079 232.42 216.313 230 217z"/>
<path style="fill:#d2ebe8; stroke:none;" d="M504.333 216.667C504.278 216.722 504.222 217.778 504.667 217.333C504.722 217.278 504.778 216.222 504.333 216.667z"/>
<path style="fill:#b0cfc9; stroke:none;" d="M458 217C457.066 222.029 457 226.899 457 232C458.634 228.108 459.54 220.945 458 217z"/>
<path style="fill:#f8d794; stroke:none;" d="M144 266C149.092 260.52 155.492 251.099 163.039 249.107C166.304 248.246 169.687 249.501 173 249C173.69 250.537 173.328 250.338 175 250L176 256C179.438 256.519 189.57 258.646 191.437 254.541C193.587 249.812 189.944 244.278 195 241L195 238L192 238C196.669 234.887 197.613 238.984 200 236L200 240C204.551 240.252 207.763 239.691 212 238C211.455 239.635 211.635 239.455 210 240L210 242C214.57 247.012 217.385 251.348 224 254C224 247.347 226.332 238.412 222 233C224.885 230.143 224.677 227.887 224 224C226.712 223.177 227.538 222.433 229 220C220.394 220.375 214.653 224.772 206.985 227.756C191.725 233.696 176.817 239.659 162 246.703C154.308 250.36 145.397 256.977 144 266z"/>
<path style="fill:#ecddb1; stroke:none;" d="M200 229C204.003 229.844 208.419 227.8 212 226C208.103 225.305 203.605 227.447 200 229z"/>
<path style="fill:#f0d9af; stroke:none;" d="M403 225C404.462 227.911 405.853 229.135 409 230C407.173 227.782 405.486 226.455 403 225z"/>
<path style="fill:#f4e3bf; stroke:none;" d="M195 231C196.846 231.468 198.069 231.301 200 231C197.956 230.226 197.155 230.408 195 231z"/>
<path style="fill:#ebd5a4; stroke:none;" d="M409 230C412.429 238.777 424.071 247.164 432 252C427.748 243.116 417.504 234.774 409 230z"/>
<path style="fill:#cce2e0; stroke:none;" d="M507 235L507 240C507.83 237.969 507.83 237.031 507 235z"/>
<path style="fill:#f6e1bc; stroke:none;" d="M179 238C181.533 238.537 183.512 237.78 186 237C183.249 236.035 181.611 236.748 179 238z"/>
<path style="fill:#fff8e8; stroke:none;" d="M160 248C165.385 245.758 170.379 242.619 176 241C170.541 238.796 162.735 243.181 160 248z"/>
<path style="fill:#f2fffe; stroke:none;" d="M508 240C509.014 263.616 515.986 286.662 519 310C523.343 299.65 516.09 285.904 516 275C515.315 276.248 515.251 276.548 515 278C513.244 272.059 513.586 265.197 512.845 259C512.087 252.667 510.401 246.3 510 240L508 240z"/>
<path style="fill:#dbf7f1; stroke:none;" d="M458 243L458 248C458.83 245.969 458.83 245.03 458 243z"/>
<path style="fill:#f4d6a1; stroke:none;" d="M312 248L312 250C318.471 250 325.619 249.143 332 250.263C338.739 251.446 345.099 254.109 352 255C347.4 249.594 339.57 249.248 333 248.961C325.964 248.653 319.081 248 312 248z"/>
<path style="fill:#ebd9b3; stroke:none;" d="M304 250C308.473 251.877 314.188 250.992 319 251C324.71 251.009 330.29 251.984 336 252C332.73 249.523 329.001 250 325 250L304 250z"/>
<path style="fill:#e7dba8; stroke:none;" d="M296 251C298.613 252.098 301.165 251.993 304 252C301.387 250.902 298.836 251.007 296 251z"/>
<path style="fill:#f5e7c4; stroke:none;" d="M304 251C306.613 252.098 309.165 251.993 312 252C309.387 250.902 306.836 251.007 304 251z"/>
<path style="fill:#fbf3cf; stroke:none;" d="M312 251C316.724 252.982 322.91 252 328 252C323.276 250.018 317.09 251 312 251z"/>
<path style="fill:#ebdaae; stroke:none;" d="M151 252C148.131 255.126 145.659 258.081 144 262C147.466 259.685 151.277 256.443 151 252z"/>
<path style="fill:#ebd7a5; stroke:none;" d="M272 255C279.126 257.984 288.513 253.322 296 253C289.048 250.11 279.287 254.42 272 255z"/>
<path style="fill:#fffee8; stroke:none;" d="M260 260C264.832 262.009 269.237 259.641 274 258.444C280.871 256.719 287.983 255.433 295 254.428C313.975 251.711 333.104 255.998 352 256C344.084 251.227 332.913 252 324 252C315.126 252 305.815 251.204 297 252.286C284.404 253.833 272.376 258.172 260 260z"/>
<path style="fill:#f0d9a9; stroke:none;" d="M432 252C432.637 256.005 434.536 257.998 438 260C436.652 256.598 434.834 254.308 432 252z"/>
<path style="fill:#fff7e2; stroke:none;" d="M352 256C354.023 258.695 356.956 259.19 360 260.503C364.372 262.389 368.242 265.327 373 266C367.556 260.497 359.334 257.961 352 256z"/>
<path style="fill:#f0d9b0; stroke:none;" d="M360 258C361.941 259.402 363.73 260.221 366 261C364.249 258.552 362.996 258.225 360 258z"/>
<path style="fill:#f1dfb6; stroke:none;" d="M438 260C438.406 262.092 438.217 262.02 440 263C439.317 261.42 439.195 261.223 438 260z"/>
<path style="fill:#f0d7a5; stroke:none;" d="M224 272C234.789 270.919 245.574 265.017 256 262C248.75 259.4 238.823 265.516 232 267.907C228.691 269.067 225.971 268.956 224 272z"/>
<path style="fill:#fffce9; stroke:none;" d="M192 287C196.334 288.423 201.061 285.249 205 283.425C214.257 279.14 224.1 276.659 233.039 271.846C235.529 270.505 238.177 270.131 240 268C246.619 269.136 253.849 264.373 260 262C254.577 260.119 247.26 264.642 242 266.282C224.699 271.678 208.674 280.058 192 287z"/>
<path style="fill:#efd9a7; stroke:none;" d="M366 261C371.25 265.416 377.531 269.645 384 272C380.601 265.692 372.994 261.702 366 261z"/>
<path style="fill:#fffae4; stroke:none;" d="M141 263C139.372 271.77 139.436 282.022 147 288C145.302 283.687 143.086 279.646 142.325 275C141.664 270.964 142.595 266.8 141 263z"/>
<path style="fill:#f3e4bd; stroke:none;" d="M142 263L142 268C143.255 266.249 143.614 265.143 144 263L142 263z"/>
<path style="fill:#efdaa5; stroke:none;" d="M440 263C440.615 267.588 443.493 276.504 448 278C447.393 272.112 444.224 267.062 440 263z"/>
<path style="fill:#ffffef; stroke:none;" d="M442 265C448.9 278.931 458.017 292.104 463.025 307C475.057 342.784 479.352 379.644 482.09 417C482.388 421.062 483.775 424.917 483.961 429C485.081 453.687 483 478.349 483 503C484.693 498.965 483.776 494.319 484.285 490C486.067 474.904 486.124 459.109 485.09 444C483.883 426.378 484.323 408.619 482.907 391C482.372 384.342 480.298 377.626 479.275 371C477.536 359.737 476.374 349.108 473.594 338C472.163 332.282 473.127 325.571 470.972 320.129C470.029 317.748 467.882 316.218 466.885 313.871C465.693 311.065 465.475 307.876 464.381 305C461.331 296.979 457.452 289.465 453.844 281.714C450.794 275.164 448.841 268.718 442 265z"/>
<path style="fill:#efd8a5; stroke:none;" d="M143 266C139.069 282.512 151.572 298.516 169 296.829C177.303 296.025 184.229 290.646 192 288C184.056 284.767 177.467 293.362 170 294.671C159.497 296.513 148.432 288.991 145.144 279C143.741 274.74 144.708 270.07 143 266z"/>
<path style="fill:#ffffee; stroke:none;" d="M376 268C378.616 275.569 385.695 278.272 390.58 284.259C395.283 290.023 400.545 297.194 404.414 303.576C406.827 307.556 408.077 312.256 412 315C410.276 305.444 403.755 297.537 397.885 290.255C396.392 288.403 395.835 286.058 394.415 284.166C390.045 278.342 382.367 271.528 376 268z"/>
<path style="fill:#fff7db; stroke:none;" d="M380 270C382.594 274.86 387.524 278.848 392 282C389.503 276.645 385.063 272.927 380 270z"/>
<path style="fill:#efdba5; stroke:none;" d="M208 280C212.914 278.584 220.905 276.124 224 272C218.437 272.943 209.923 274.047 208 280z"/>
<path style="fill:#f0d7a7; stroke:none;" d="M384 272C391.687 282.923 400.694 291.989 407 304C407.811 300.385 406.018 297.201 404.29 294.015C399.987 286.08 392.231 275.839 384 272z"/>
<path style="fill:#f4e1b9; stroke:none;" d="M448 276C448.936 277.948 449.392 278.55 451 280C450.064 278.051 449.608 277.45 448 276z"/>
<path style="fill:#f6d6a8; stroke:none;" d="M192 287C196.869 285.597 201.424 283.168 206 281C201.447 279.671 193.788 282.549 192 287z"/>
<path style="fill:#b5d9cb; stroke:none;" d="M464 280C464.047 296.965 469.867 314.373 473 331C474.904 326.332 472.788 320.813 472.031 316C470.179 304.23 469.084 290.942 464 280z"/>
<path style="fill:#fff6d5; stroke:none;" d="M396 287C396.744 289.68 397.529 290.719 400 292C398.896 289.643 398.044 288.624 396 287z"/>
<path style="fill:#f8d794; stroke:none;" d="M403 287C402.169 296.99 410.936 306.565 415.121 315.17C419.927 325.051 420.304 335.581 423 346C423.685 344.752 423.749 344.452 424 343C426.471 351.342 428.375 360.375 430 369C432.093 365.137 429.999 359.454 429.954 355.039C429.895 349.17 431.627 341.767 433 336C437.444 336.865 441.524 336.168 446 336C443.146 328.882 438.098 326.156 433 321C431.571 324.404 431.866 328.364 431 332C428.211 327.953 426.751 324.942 427 320C424.545 320 421.025 321.007 419.167 319C416.312 315.917 418.477 308.861 417.833 305C417.516 303.095 416.372 298.845 415 302C413.053 298.605 412.115 295.931 412 292L407 294C406.006 291.288 404.885 289.188 403 287z"/>
<path style="fill:#fffeeb; stroke:none;" d="M147 288C147.512 294.485 152.349 295.945 158 297.551C170.804 301.189 181.327 295.736 192 289C185.53 287.662 179.054 294.149 173 295.895C162.433 298.943 155.274 293.651 147 288z"/>
<path style="fill:#f2d79f; stroke:none;" d="M456 292C456.229 296.236 458.045 299.067 459.302 303C460.211 305.847 459.683 308.859 460.471 311.714C461.453 315.277 463.669 318.45 464.781 322C470.924 341.617 476.986 363.215 477 384L479 384C478.939 361.853 472.994 337.772 465.958 316.911C463.281 308.971 461.083 298.716 456 292z"/>
<path style="fill:#f5e6c5; stroke:none;" d="M461 303C461.378 305.551 461.988 307.627 463 310C463.653 307.106 462.856 305.266 461 303z"/>
<path style="fill:#f0d6a3; stroke:none;" d="M408 304C409.296 309.666 412.64 314.666 414.91 320C417.079 325.1 418.283 330.723 420 336C423.561 326.876 414.049 312.005 410 304L408 304z"/>
<path style="fill:#fffce9; stroke:none;" d="M412 315C412.483 321.111 414.817 326.147 416.25 332.001C417.052 335.279 416.789 338.737 417.8 341.961C418.811 345.183 421.103 347.753 422.061 351.015C424.027 357.712 423.751 365.123 425.298 371.91C425.796 374.097 427.214 375.9 427.701 378.09C429.603 386.627 428.452 396.291 429.09 405C429.363 408.727 430.637 412.273 430.91 416C432.467 437.245 432 458.677 432 480C433.661 476.041 433 471.26 433 467L433 442C433 410.981 430.185 380.349 423.804 350C422.205 342.396 419.957 335.411 417.721 328C416.287 323.245 415.465 318.719 412 315z"/>
<path style="fill:#f6ffff; stroke:none;" d="M320 660L322 660L322 397L322 360C322 353.635 320.945 346.153 322.8 340C325.601 330.713 335.944 321.36 346 321.347C352.15 321.339 357.437 324.979 363 327C357.543 318.244 342.096 316.149 333.174 320.974C329.198 323.124 324.288 329.358 322.125 333.289C319.579 337.916 320 343.908 320 349L320 377L320 660z"/>
<path style="fill:#d5ebf5; stroke:none;" d="M343 321C345.052 321.874 346.747 321.953 349 322C346.948 321.126 345.253 321.047 343 321z"/>
<path style="fill:#9fbee6; stroke:none;" d="M323 664C325.082 658.665 323 649.879 323 644L323 595L323 418L323 366C323 356.852 321.768 346.671 325.34 338.004C327.552 332.637 332.963 329.825 336 325L338 327C343.597 323.307 349.535 324 356 324C344.252 316.963 328.502 325.496 323.533 337C321.036 342.781 322 349.85 322 356L322 392L322 569L322 626C322 638.672 321.411 651.425 323 664z"/>
<path style="fill:#faffff; stroke:none;" d="M360 322C363.164 328.658 368.85 333.773 370.84 341C373.425 350.387 372 361.336 372 371L372 428L372 607L372 640C372 647.942 372.554 655.465 369.676 663C365.52 673.879 352.987 682.748 341 679.502C336.173 678.194 332.107 674.68 328 672L328 677L330 677L329 679C333.675 680.869 337.947 681.795 343 681.964C347.592 682.119 352.602 682.426 356.999 680.891C366.254 677.661 372.671 667.853 373.612 658.286C374.039 653.939 372.848 649.411 373.039 645C373.475 634.974 374 625.079 374 615L374 422L374 369C374 361.759 375.376 354.191 374.942 347.039C374.586 341.167 371.995 333.585 370 328L366 329C364.877 325.309 363.653 323.384 360 322z"/>
<path style="fill:#9bc3ff; stroke:none;" d="M338 327C337.455 325.365 337.635 325.545 336 325C333.588 327.72 329.845 330.148 328.052 333.285C326.543 335.925 326.809 340.027 326 343C330.669 349.375 329 362.316 329 370C329 390.625 330 411.308 330 432L334 432L334 605L334 644C334 651.268 334.187 658.124 327 662C332.11 655.898 330 647.609 330 640L327 640L327 656C325.393 650.563 326 644.642 326 639C324.559 642.435 325 646.298 325 650C325 659.897 325.22 668.852 334.456 674.918C338.282 677.431 347.275 680.523 351.816 679.204C359.426 676.992 367.023 665.424 367.695 658.015C368.187 652.603 366 646.649 366 641L366 582L366 393L366 352C366 347.073 368.069 339.889 366.432 335.285C362.711 324.817 346.422 319.705 338 327z"/>
<path style="fill:#a5c0dd; stroke:none;" d="M356 324C358.798 327.448 362.032 330.01 366 332C363.87 327.642 360.571 325.46 356 324z"/>
<path style="fill:#fefefc; stroke:none;" d="M472 328C472.732 337.271 475.937 345.885 477.536 355C479.555 366.502 480.801 378.416 482.675 390C483.474 394.938 482.749 400.026 483.09 405C484.078 419.433 485 433.488 485 448C486.719 443.904 485.618 439.391 486.129 435.039C486.62 430.858 487.985 427.323 488 423C493.798 426.197 490.725 430.692 490.129 436C489.687 439.936 490 444.043 490 448L492 448L492 433L494 433L494 448L496 448L496 436C496 435.104 496.424 432.763 496 432L494 431C493.5 427.497 494 423.544 494 420C494 416.11 492.191 412.015 494 409L495 410C494.114 405.98 494.565 401.006 493.111 397.259C491.781 393.831 488.583 391.24 487.07 387.83C483.766 380.382 481.365 370.962 479.47 363C476.789 351.737 478.355 338.405 472 328z"/>
<path style="fill:#a0c1f2; stroke:none;" d="M364 331C365.436 334.044 367.653 336.668 368.467 340.004C370.782 349.496 369 361.255 369 371L369 431L369 658C371.701 651.564 370 641.951 370 635L370 584L370 407L370 352C370.001 343.857 372.362 335.586 364 331z"/>
<path style="fill:#fffffd; stroke:none;" d="M372 333C372.066 340.846 377.676 345.655 377.981 353.001C379.372 386.538 378 420.43 378 454L378 656L375 656L375 661C371.122 661.527 371.09 666.823 369.384 669.981C367.287 673.865 363.558 675.761 362 680C368.128 679.499 373.243 680.161 376.427 673.819C378.398 669.897 375.826 666.378 380 664C378.37 651.102 379 637.997 379 625L379 565C379 496.706 377.751 428.281 379.005 360C379.077 356.048 380.86 353.502 381.701 349.83C382.693 345.504 382 340.423 382 336C380.707 337.923 379.858 339.84 379 342C377.216 338.102 375.981 334.965 372 333z"/>
<path style="fill:#9dc4fe; stroke:none;" d="M326 335C322.102 345.332 323 356.145 323 367L323 418L323 595C323 614.648 322.533 634.359 323.015 654C323.207 661.841 324.355 671.521 333 674C330.752 670.22 327.214 667.304 325.724 663C323.411 656.319 325 647.011 325 640L325 591L325 410L325 355C325 351.754 324.681 348.297 325.26 345.09C325.96 341.213 328.128 338.743 326 335z"/>
<path style="fill:#9bc1ff; stroke:none;" d="M367 336C364.364 369.402 366 403.464 366 437L366 612C366 623.969 365.572 636.026 366.019 647.985C366.226 653.548 367.244 658.301 367 664C370.846 658.371 369 648.608 369 642L369 588L369 406L369 358C369 351.169 370.618 342.04 367 336z"/>
<path style="fill:#fdfffc; stroke:none;" d="M319 341L319 352L316 352L316 487C316 509.61 315.176 532.393 316.019 554.985C316.173 559.132 317.933 562.808 317.995 567.001C318.06 571.371 316.636 574.884 316.129 579.089C315.237 586.492 315.879 594.542 316.005 601.996C316.07 605.871 317.68 609.211 317.946 613.015C319.006 628.161 319 643.818 319 659C321.599 652.806 320 643.686 320 637L320 589L320 421L320 366C320 358.52 321.903 347.919 319 341z"/>
<path style="fill:#a6bce6; stroke:none;" d="M370 341L370 588L370 636C370 643.563 371.393 652.783 368.737 659.996C366.355 666.464 359.493 673.027 354 677C360.308 678.724 364.139 672.416 365 667L369 667C371.575 655.736 371 644.528 371 633L371 586L371 432L371 369C371 360.729 373.206 348.639 370 341z"/>
<path style="fill:#9ac4ff; stroke:none;" d="M325 342L325 639C327.701 632.564 326 622.951 326 616L326 564L326 384L328 384L329 640C331.497 634.049 330 625.42 330 619L330 573L330 412C330 394.942 329.007 378.038 329 361C328.998 355.559 329.703 345.39 325 342z"/>
<path style="fill:#d3e3fd; stroke:none;" d="M371 343L371 659C373.903 652.081 372 641.48 372 634L372 580L372 413L372 365C372 358.314 373.599 349.194 371 343z"/>
<path style="fill:#f2dba5; stroke:none;" d="M424 343C422.943 349.403 424.978 354.758 426.076 361C428.199 373.064 430.966 385.739 431 398C433.092 393.015 431.637 387.242 431.375 382C430.828 371.058 428.322 361.657 425.609 351C424.916 348.279 425.086 345.582 424 343z"/>
<path style="fill:#f9d696; stroke:none;" d="M469 344C470.305 350.108 475.212 358.023 468 362C467.536 364.172 466.894 365.958 466 368C468.512 367.666 470.62 366.854 473 366L473 370L472 368C469.612 373.69 471.247 381.045 472 387C473.3 386.35 473 386.853 473 385C475.549 394.977 476 405.624 476 416C477.314 415.232 477.232 415.314 478 414C481.671 426.421 479.325 440.317 479.015 453C478.697 465.96 479.384 479.074 477.871 491.961C476.971 499.63 475.383 507.149 475.039 515C474.729 522.085 475.942 528.958 476 536C481.473 528.053 479.895 517.146 480.004 508C480.072 502.305 481 496.722 481 491C481.002 455.332 480 419.587 480 384L477 384C476.999 376.017 475.157 368.822 474.184 361C473.408 354.765 473.719 348.728 469 344z"/>
<path style="fill:#feffff; stroke:none;" d="M375 346C376.567 421.904 376 498.008 376 574C376 594.272 376.847 614.749 375.961 635C375.588 643.499 373.275 652.583 374 661C374.779 659.231 374.912 657.964 375 656L378 656L378 443L378 378C378 367.924 379.862 355.683 377 346L375 346z"/>
<path style="fill:#fbffff; stroke:none;" d="M375 352C372.138 361.683 374 373.924 374 384L374 449C374 517.656 373 586.43 373 655L375 655C375 583.432 376 511.655 376 440L376 379C376 370.993 378.105 359.4 375 352z"/>
<path style="fill:#fffeff; stroke:none;" d="M380 352C377.055 361.963 379 374.631 379 385L379 450C379 523.654 379.952 597.434 380 671L383 670C383 667.115 381.26 664.961 382 662C383.403 656.389 382.733 645.933 381 639C379.469 632.875 381 624.344 381 618L381 573L381 429L381 372C381 366.862 379.476 358.206 382 354L383 355C383 353.203 382.986 353.479 382 352L380 352z"/>
<path style="fill:#aed7cf; stroke:none;" d="M479 353C488.004 384.965 499.452 415.823 513.309 446C518.634 457.597 526.091 468.272 531 480C532.408 475.178 528.49 470.407 526.761 466C524.664 460.656 521.092 457.016 518.723 451.985C517.23 448.813 516.829 445.393 515.057 442.285C512.155 437.194 508.171 432.037 508 426C504.411 422.186 504.351 416.76 502.424 412C498.041 401.179 491.743 390.361 489.033 379C488.003 374.681 486.2 370.658 485.143 366.424C483.84 361.209 483.819 356.441 479 353z"/>
<path style="fill:#eefffd; stroke:none;" d="M479 354C479 364.055 482.187 372.668 485.32 382.09C486.963 387.03 487.443 391.75 492 395C490.498 386.274 486.621 377.445 483.885 369C482.285 364.062 481.45 358.574 479 354z"/>
<path style="fill:#fdfffe; stroke:none;" d="M535 366C537.857 378.348 543.181 390.313 547.989 402C559.332 429.572 573.264 456.779 590.714 481C598.614 491.964 605.87 505.995 617 514C616.858 508.034 612.182 505.257 608.704 500.91C606.651 498.345 605.497 495.065 603.24 492.684C599.558 488.801 595.947 486.943 596 481L593 482C591.829 475.786 591.875 470.272 592 464C596.699 464.004 601.452 465.411 606 465L600 456C592.667 456 584.706 457.328 584 448L576 448L576 442C574.686 442.768 574.768 442.686 574 444C573.953 441.67 573.797 441.994 576 441L576 432C579.172 433.147 580.828 433.147 584 432C581.193 426.283 578.073 422.607 578 416L571 414C570.19 416.729 570.021 419.151 570 422C574.091 423.151 576.196 425.175 578 429C576.805 427.777 576.684 427.58 576 426L570 426L573 434L568 433C569.214 428.553 567.851 423.673 568 419C566.985 420.139 566.691 420.612 566 422L564 422C562.817 418.608 561.111 415.897 559 413C557.985 414.139 557.691 414.612 557 416C550.785 405.99 554.206 395.744 552 385C549.986 387.591 549.324 390.553 547 393C546.276 389.96 546.026 387.122 546 384C540.153 380.81 538.497 372.233 538 366L535 366z"/>
<path style="fill:#fffffd; stroke:none;" d="M425 374C425.478 380.053 426.95 385.9 427 392L424 392C424 399.442 423.475 407.687 424.545 415C425.555 421.903 427.569 429.035 427.957 436C428.385 443.683 428.768 452.318 427.871 459.961C427.379 464.148 425.988 467.661 426.001 472C426.03 482.461 428.703 492.712 429 503C431.821 496.461 430.469 488.916 431.285 482C434.266 456.742 431.858 430.071 429.174 405C428.476 398.487 428.327 391.548 428.039 385C427.849 380.668 428.815 376.751 425 374z"/>
<path style="fill:#b2dad1; stroke:none;" d="M536 376C537.274 380.468 538.012 385.632 539.587 389.91C541.398 394.83 544.799 397.355 545 403C548.772 406.95 549.853 413.012 552.155 417.961C556.082 426.401 563.487 435.52 564 445C569.013 445.942 571.599 455.781 574.037 459.944C576.3 463.809 579.489 467.143 581.787 471.06C586.549 479.177 591.894 491.944 601 496C595.665 484.012 585.764 473.124 578.695 462C568.447 445.873 560.145 428.351 552.231 411C548.637 403.123 545.487 395.074 542.388 387C540.825 382.927 539.832 378.335 536 376z"/>
<path style="fill:#f8d794; stroke:none;" d="M431 378L432 408C433.848 406.922 433.966 407.051 436 408L436 400C442.945 402.108 441.18 411.916 441.834 418C442.357 422.857 444.605 427.255 444.946 432.015C445.832 444.379 444.254 456.704 444 469C448.748 463.454 447.526 457.768 448.17 451C449.608 435.892 448.024 421.085 448 406C447.991 400.372 449.901 390.575 447.411 385.459C445.451 381.431 439.351 384.41 436.103 383.253C433.781 382.426 432.545 379.756 431 378z"/>
<path style="fill:#97c3ff; stroke:none;" d="M326 384L326 656C327.722 651.896 326.499 647.419 327.259 643.089C331.228 620.499 329 596.044 329 573C329 509.941 328 447.038 328 384L326 384z"/>
<path style="fill:#9cc2ff; stroke:none;" d="M337 384C334.386 392.842 336 403.805 336 413L336 470L336 656L338 656L338 464L338 409C338 401.52 339.903 390.919 337 384z"/>
<path style="fill:#f3e8c3; stroke:none;" d="M480 388L480 398C481.346 394.793 481.346 391.207 480 388z"/>
<path style="fill:#cdebe3; stroke:none;" d="M544.333 392.667C544.278 392.722 544.222 393.778 544.667 393.333C544.722 393.278 544.778 392.222 544.333 392.667z"/>
<path style="fill:#f6eac1; stroke:none;" d="M431 398L431 405C432.059 402.466 432.059 400.534 431 398z"/>
<path style="fill:#f9d694; stroke:none;" d="M436 400L436 408C434.814 406.814 434.416 406.472 433 406C434.5 410.809 434.999 414.968 435 420C437.019 421.15 437.723 422.015 439 424C433.343 427.667 437.404 438.967 436.83 445C434.741 466.956 435 489.939 435 512L432 512L431 552C434.015 549.197 437.587 545.258 440 542L442 542C444.072 544.618 447.637 544.713 448.678 540.887C449.6 537.501 448.27 533.426 448 530C445.19 529.34 439.472 527.522 439.113 523.996C438.746 520.39 444.75 516.7 445.37 512.711C446.946 502.569 445 491.302 445 481C446.259 485.261 446 489.577 446 494L448 494C448 484.791 446 476.153 446 467C444.7 467.65 445 467.147 445 469C443.984 464.979 444.947 461.127 444.996 457C445.091 449.012 445.131 440.991 444.995 433.004C444.906 427.76 442.422 423.231 441.925 418C441.366 412.117 443.131 401.19 436 400z"/>
<path style="fill:#fbeecd; stroke:none;" d="M481 400L481 408C482.161 405.23 482.161 402.77 481 400z"/>
<path style="fill:#fdfffe; stroke:none;" d="M494 400C493.286 403.712 493.876 406.424 495 410C491.652 410.561 493.877 416.209 493.981 419C494.351 428.875 496 438.069 496 448L494 448L494 433L492 433L493 464L497 464L497 448C500.644 448 505.096 449.217 506 445C507.778 451.014 507 457.757 507 464L512 464C512.414 460.605 512.351 457.286 515 455C513.89 458.059 513.431 460.235 517 461C515.897 462.457 515.457 462.897 514 464C514.351 468.182 514.651 470.77 519 472L518 468C523.808 470.976 523.487 478.916 530 480L529 485C531.918 487.785 532.781 489.989 533 494L539 493C538.521 497.253 539.483 501.118 544 502C545.134 506.408 547.864 510.003 550 514C538.836 519.879 561.143 520.521 553 526C559.981 530.965 566.293 534.504 571 542L569 541C569.661 542.396 569.964 542.814 571 544C568.929 544.198 567.062 544.269 565 544L564 548C570.049 548.067 576.91 549.16 578 556C584.229 555.843 586.597 559.816 592 562C586.38 552.128 576.378 543.946 569.286 535C556.244 518.55 544.77 500.799 533.684 483C522.039 464.303 512.745 444.112 503.86 424C500.389 416.142 498.224 407.478 494 400z"/>
<path style="fill:#f2deb5; stroke:none;" d="M432 408L432 416C433.161 413.23 433.161 410.77 432 408z"/>
<path style="fill:#f4d79e; stroke:none;" d="M433 408C433.053 427.292 434.46 446.624 433.985 466C433.61 481.335 432 496.628 432 512L435 512C435 490.275 434.773 467.622 436.83 446C437.482 439.148 433.806 429.091 439 424C437.983 421.519 437.561 420.736 435 420C435 415.761 435.638 411.482 433 408z"/>
<path style="fill:#edd6a1; stroke:none;" d="M481 408L480 512C483.247 504.334 482 494.188 482 486L482 435C482 426.993 484.105 415.4 481 408z"/>
<path style="fill:#f9eed2; stroke:none;" d="M432 416L432 424C433.161 421.23 433.161 418.77 432 416z"/>
<path style="fill:#e9dbba; stroke:none;" d="M433 416L433 432C434.812 427.681 434.812 420.319 433 416z"/>
<path style="fill:#f8ebcb; stroke:none;" d="M482 420L482 428C483.161 425.23 483.161 422.77 482 420z"/>
<path style="fill:#ffffff; stroke:none;" d="M488 423C487.953 427.251 486.35 430.894 486.054 435.039C484.993 449.89 486.041 465.188 486 480L490 480C489.889 476.173 488.427 472.755 488.168 469C487.722 462.523 488.001 455.559 488 449L490 449C490 455.725 491.105 461.517 491.871 468.039C492.511 473.486 491.624 477.306 495 482C496.195 481.402 495.977 481.534 497 480C501.535 485.168 505.972 490.438 510 496C504.66 496 499.146 495.479 494 497C496.418 504.751 494.111 509.407 494.108 517C494.107 519.732 495.437 522.277 495.285 525C495.047 529.247 492.613 532.673 493 537L490 538C494.119 540.764 501.187 537.814 503.628 533.441C505.14 530.733 503.196 527.464 507.124 526.318C512.668 524.701 520.246 525.997 526 526C528.776 526.001 532.098 525.592 534.671 526.858C537.853 528.425 538.967 532.182 542 534C541.573 531.355 541.179 530.539 539 529C543.608 520.681 545.565 511.483 544 502C539.901 500.752 539.122 496.969 539 493L533 494C532.901 489.9 532.558 487.312 529 485L530 480C523.514 478.037 524.647 470.05 518 468L519 472C515.17 470.219 514.937 467.881 514 464C516.124 463.101 516.101 463.124 517 461C514.4 459.28 514.476 458.034 515 455C513.203 455 513.479 455.014 512 456C512.305 458.715 512.159 461.272 512 464L507 464L507 445C506.315 446.248 506.251 446.548 506 448L497 448L497 464L493 464L493 447L490 448C490 444.062 489.622 439.896 490.259 436C491.058 431.118 494.282 425.085 488 423z"/>
<path style="fill:#fff9de; stroke:none;" d="M483 424C483 449.024 483.054 474.029 481.961 499C481.622 506.727 480.001 514.224 480 522C483.843 514.003 483 501.763 483 493C483 478.336 484 463.713 484 449C484 441.52 485.903 430.919 483 424z"/>
<path style="fill:#eddab2; stroke:none;" d="M482 428L482 475C483.552 471.301 483 466.983 483 463L483 441C483 436.74 483.661 431.959 482 428z"/>
<path style="fill:#ceece4; stroke:none;" d="M561.333 430.667C561.278 430.722 561.222 431.778 561.667 431.333C561.722 431.278 561.778 430.222 561.333 430.667z"/>
<path style="fill:#9cc3fe; stroke:none;" d="M330 432L330 597L330 640C330 647.859 331.199 655.098 327 662C333.844 659.778 333.998 653.217 334 647L334 607L334 432L330 432z"/>
<path style="fill:#f1e4c2; stroke:none;" d="M433 432L433 472C436.206 464.361 434 452.271 434 444C434 440.017 434.552 435.699 433 432z"/>
<path style="fill:#fffffd; stroke:none;" d="M488 449C488 455.835 487.452 463.248 488.133 470C488.477 473.417 489.78 476.541 490 480L486 480L487 464L485 464C485 475.679 484.976 487.38 483.896 499C483.122 507.324 481.008 515.628 480.171 524C478.875 536.959 479.365 550.049 477.816 563C476.419 574.667 474 586.155 474 598C476.547 592.712 478.517 585.865 479 580C483.77 584.465 480.31 587.263 478 592C484.616 592 491.417 593.28 492 585L502 589C499.894 589.644 498.205 589.906 496 590C497.537 593.118 500.074 595.058 502.218 597.745C505.359 601.681 507.282 605.674 512 608L512 596C520.648 596 529.355 595.7 537.996 596.019C541.107 596.133 543.963 597.742 547 597.742C549.342 597.742 551.731 596.506 554 596L554 592L560 592L560 582C553.298 581.118 547.504 585.154 541 586.485C533.993 587.919 526.127 587 519 587C514.134 587 508.71 587.661 504 586.25C483.356 580.066 474.969 554.527 494 541C492.542 539.919 491.752 539.564 490 539L493 537C493.319 532.882 495.396 529.057 495.612 525C495.777 521.902 494.015 519.13 494.313 516C494.992 508.878 496.986 504.047 494 497C499.282 495.742 504.6 496 510 496C507.927 491.795 500.154 478.939 495 482C492.115 476.756 492.56 472.803 491.871 467.09C491.123 460.881 490 455.405 490 449L488 449z"/>
<path style="fill:#fffdeb; stroke:none;" d="M431 480C431 488.855 429.691 497.223 429.09 506C428.179 519.288 428.266 532.752 426.826 546C426.414 549.792 424.742 553.249 424.209 557C422.598 568.331 422.008 580.565 422 592C425.987 583.119 425.141 570.614 426.174 561C428.026 543.762 430.068 526.382 431.035 509C431.52 500.297 434.462 488.251 431 480z"/>
<path style="fill:#fcf3cb; stroke:none;" d="M432 480L432 488C433.161 485.23 433.161 482.77 432 480z"/>
<path style="fill:#b3d8cd; stroke:none;" d="M532 480C536.534 491.979 545.85 503.401 553 514C553.402 511.549 552.372 509.465 552 507C547.447 503.101 544.965 497.333 541.831 492.285C539.14 487.951 536.588 485.348 537 480L532 480z"/>
<path style="fill:#f1e1b7; stroke:none;" d="M432 488L432 496C433.161 493.23 433.161 490.77 432 488z"/>
<path style="fill:#ebe1bd; stroke:none;" d="M431 504L431 512C432.161 509.23 432.161 506.77 431 504z"/>
<path style="fill:#fefefe; stroke:none;" d="M545 506C544.067 509.918 544.485 513.962 543.544 517.83C542.599 521.717 540.45 525.302 539 529C540.733 530.757 541.341 531.642 542 534C539.698 531.928 538.225 528.318 535.468 526.858C529.735 523.823 518.388 525.987 512 526C509.872 526.004 506.536 525.499 504.785 527.027C502.899 528.672 504.415 531.176 503.451 533.122C502.417 535.208 499.386 535.993 498 538C512.578 534.668 535.576 532.542 548.999 540.613C565.021 550.246 564.436 573.615 548 582.583C535.58 589.359 516.681 586 503 586C504.985 587.985 512.261 587 516 587C523.854 587 534.417 588.896 542 587C544.815 586.296 549.278 585.21 552 584C553.309 583.418 554.547 581.121 556 581C558.823 580.765 559.266 582.934 559 584C562.987 583.146 562 579.51 562 576C564.286 575.608 565.772 575.334 568 576C568.077 569.053 570.121 561.954 571 555C569.543 553.897 569.103 553.457 568 552C571.169 551.992 573.959 551.9 577 551C572.749 548.767 568.779 548.016 564 548L565 544C567.255 544.502 568.728 544.448 571 544L569 541L571 542C567.943 534.83 560.727 528.54 553 527C554.479 526.014 554.203 526 556 526C555.868 524.303 556.008 522.21 554.397 521.108C551.201 518.923 543.686 519.159 550 514C548.822 510.793 547.451 508.383 545 506z"/>
<path style="fill:#f0d8a6; stroke:none;" d="M431 512C430.998 533.307 427.453 554.934 424.428 576C421.367 597.32 418.832 618.709 415.41 640C412.097 660.621 403.385 683.664 410 704C411.597 699.548 409.243 694.641 409.129 690C409.007 685.055 410.566 679.888 411.271 675C414.847 650.207 419.699 625.696 423.741 601C424.822 594.392 424.033 587.664 425.475 581.015C426.642 575.628 428.842 570.49 429.741 565C431.452 554.543 430.577 543.56 431.039 533C431.332 526.316 433.681 518.389 431 512z"/>
<path style="fill:#fad495; stroke:none;" d="M464 544L460 544C460 552.729 459.154 560.584 458.129 569.089C457.739 572.327 458.419 575.704 457.722 578.907C456.68 583.695 452.683 586.87 452 592C462.713 591.881 463.492 584.585 467 576C461.456 575.271 467.254 565.839 466.917 562C466.507 557.348 465.367 552.728 466.111 548C467.785 537.366 473.33 526.228 470.889 515.028C470.15 511.639 464.774 510.664 463.333 514.111C461.677 518.076 462.781 525.73 463.028 530C463.301 534.717 464 539.225 464 544z"/>
<path style="fill:#b4d5ce; stroke:none;" d="M555 513C555.173 517.15 557.606 519.651 559.964 523C564.834 529.912 569.365 537.646 576 543C573.723 531.19 561.594 523.921 557 513L555 513z"/>
<path style="fill:#fcedca; stroke:none;" d="M430 515L430 523C431.161 520.23 431.161 517.77 430 515z"/>
<path style="fill:#fbfffe; stroke:none;" d="M617 515C622.562 524.622 632.194 532.194 640 540C653.469 553.469 667.759 565.695 683 577.127C690.512 582.761 698.3 589.34 707 593C702.834 586.627 695.138 584.383 697 576C695.203 576 695.479 576.014 694 577C692.427 574.281 691.075 573.627 688 573L688 560C682.487 559.939 677.542 558.019 672 558L672 552C666.554 551.627 664.373 549.447 664 544C659.956 544 653.702 545.482 650 543.941C636.692 538.403 629.955 521.279 617 515z"/>
<path style="fill:#a7ddd0; stroke:none;" d="M570 518L570 527C566.945 524.737 565.332 521.908 563 519C561.838 526.176 569.931 531.241 573.382 537.039C575.32 540.295 576.483 543.917 578.72 547C586.141 557.229 596.093 566.093 605 575C610.89 580.89 616.615 587.978 624 592L623 587C625.297 586.326 625.774 586.035 627 584C624.717 582.554 624.418 581.689 624 579C622.805 580.223 622.684 580.42 622 582L620 582L618 578C616.203 578 616.479 578.014 615 579C613.392 576.427 611.944 575.71 609 575C608.824 573.122 608.562 571.801 608 570L603 571L606 560L602 559L602 528L598 528L598 559C593.24 558.256 593.293 556.31 594 552C590.884 551.989 586.823 552.434 584.642 549.682C581.317 545.488 583.306 535.897 576 535L576 531C574.203 531 574.479 531.014 573 532C572.832 526.987 573.025 523.01 572 518L570 518z"/>
<path style="fill:#fefefc; stroke:none;" d="M224 520C221.303 524.891 216.985 523.701 212.039 524.054C209.224 524.255 206.742 525.545 203.961 525.871C199.23 526.427 194.695 525.882 190 527C190.878 529.017 191.652 530.232 193 532L186 532C186 534.351 185.348 533.935 183 534C190.4 537.105 201.993 535 210 535L250 535C257.9 535 266.277 535.839 274 534L272 530L280 530C278.72 521.292 260.844 522.007 255 526C245.796 518.583 235.138 520 224 520z"/>
<path style="fill:#b3d5cd; stroke:none;" d="M626 526C629.081 536.8 643.51 547.148 652 554L653 553C646.22 543.375 635.625 532.78 626 526z"/>
<path style="fill:#f8ecc9; stroke:none;" d="M429 528L429 536C430.161 533.23 430.161 530.77 429 528z"/>
<path style="fill:#efd8a6; stroke:none;" d="M478 528C477.806 531.794 476.453 535.249 476.104 539C475.463 545.9 476 553.071 476 560C477.223 557.086 476.871 554.13 477.17 551C477.843 543.953 480.822 534.726 478 528z"/>
<path style="fill:#ffffeb; stroke:none;" d="M479 528C478.997 556.034 473.83 585.255 469.83 613C468.631 621.322 466.363 629.549 466 638C473.086 629.007 470.95 617.497 472.129 607C474.108 589.372 476.79 571.736 478.09 554C478.695 545.752 482.385 536.067 479 528z"/>
<path style="fill:#e1f3ff; stroke:none;" d="M190 536C197.639 539.206 209.729 537 218 537L280 537C272.361 533.794 260.271 536 252 536L190 536z"/>
<path style="fill:#f7f1cd; stroke:none;" d="M428 536L428 544C429.161 541.23 429.161 538.77 428 536z"/>
<path style="fill:#cce8e3; stroke:none;" d="M503 536C506.699 537.552 511.017 537 515 537L538 537C534.301 535.448 529.983 536 526 536L503 536z"/>
<path style="fill:#a2bdda; stroke:none;" d="M168 554C173.001 549.547 175.794 543.527 182.285 540.728C192.838 536.178 205.795 538 217 538L282 538C274.361 534.794 262.271 537 254 537L208 537C200.669 537 192.162 535.826 185 537.532C176.921 539.457 170.459 546.284 168 554z"/>
<path style="fill:#9fc1ef; stroke:none;" d="M185 540C188.372 541.024 191.544 539.543 195 539.174C200.908 538.541 207.063 539 213 539L283 539L280 541C284.562 542.873 289.18 541.279 293.778 545.417C298.517 549.682 300.465 556.81 300.694 563C300.804 565.95 300.095 569.547 297 570C296.29 574.596 294.172 577.031 290 579L290 583C306.893 573.028 306.132 546.001 287 538.779C279.362 535.895 268.136 538 260 538L211 538C202.514 538 192.95 536.645 185 540z"/>
<path style="fill:#a8ded0; stroke:none;" d="M490 578C489.403 570.166 483.351 564.827 485.456 556.17C487.625 547.249 499.278 536.162 506 548C510.157 547.88 513.895 546.334 518 546.054C526.26 545.49 534.72 546 543 546C542.232 544.686 542.314 544.768 541 544L542 542C539.894 541.356 538.205 541.094 536 541C541.426 539.452 552.162 542.545 553.763 548.929C554.428 551.581 552.206 555.193 552 558L556 558C556.403 564.934 552.773 571.411 554 578C565.636 568.024 562.05 547.086 548.999 540.046C538.539 534.404 523.499 537 512 537C505.454 537 499.819 536.885 494.001 540.353C481.41 547.858 478.614 568.239 490 578z"/>
<path style="fill:#9bc3ff; stroke:none;" d="M290 579C294.815 577.632 296.629 574.917 297 570C302.753 569.288 300.539 560.132 299.755 556C297.897 546.216 289.998 539.484 280 542C281.186 540.814 281.584 540.472 283 540C278.531 538.125 272.809 539 268 539L237 539L203 539C195.914 539 185.02 538.346 178.846 542.11C166.049 549.909 162.971 571.766 176.174 580.921C183.979 586.334 195.063 585 204 585L264 585C271.01 585 288.56 587.799 290 579z"/>
<path style="fill:#feffff; stroke:none;" d="M163 556C157.535 557.814 159.135 563.339 160 568L156 568L161 573C158.703 573.674 158.226 573.965 157 576C162.871 579.175 164.172 587.31 171.114 589.741C179.939 592.83 187.057 588.521 196 589.09C219.108 590.561 242.809 590.826 266 589.981C270.784 589.807 275.16 588.053 280 588C273.564 585.299 263.951 587 257 587L210 587C201.034 587 191.477 588.047 183 584.522C173.027 580.374 166.335 569.826 167.097 559C167.415 554.485 176.102 543.033 168.864 540.89C165.21 539.807 160.758 545.8 160.939 549.017C161.069 551.327 162.448 553.749 163 556z"/>
<path style="fill:#a5ddd0; stroke:none;" d="M536 540C537.941 540.951 539.898 541.439 542 542L541 544C542.635 544.545 542.455 544.365 543 546C534.39 546 525.59 545.467 517 546.054C513.24 546.311 509.778 547.76 506 548C502.867 538.634 491.53 542.834 487.845 549.425C482.421 559.124 485.439 571.256 491.738 579.812C497.474 587.603 509.617 586 518 586C527.495 586 545.876 588.89 552.361 579.786C554.368 576.968 554.796 571.389 555.777 568C556.771 564.567 556.411 561.482 556 558L552 558C552.415 555.149 554.885 551.741 554.292 548.929C552.82 541.936 541.755 540.02 536 540z"/>
<path style="fill:#c1d8e9; stroke:none;" d="M167.333 555.667C167.278 555.722 167.222 556.778 167.667 556.333C167.722 556.278 167.778 555.222 167.333 555.667z"/>
<path style="fill:#9cbbd4; stroke:none;" d="M167 557L167 566C168.256 563.006 168.256 559.994 167 557z"/>
<path style="fill:#cbdbea; stroke:none;" d="M302 557L302 564C303.059 561.466 303.059 559.534 302 557z"/>
<path style="fill:#fbeec3; stroke:none;" d="M426 558L426 563C426.83 560.969 426.83 560.031 426 558z"/>
<path style="fill:#edd8a5; stroke:none;" d="M475 560C474.832 565.817 472.493 571.182 472.09 577C471.203 589.793 468.869 602.278 467.286 615C466.22 623.571 465.962 632.566 464.027 641C463.213 644.546 461.115 647.615 460.385 651.17C459.523 655.366 460.202 659.755 459.571 663.999C457.926 675.057 455.001 685.665 455 697C459.987 685.464 460.379 670.389 462.296 658C465.548 636.992 469.623 616.146 472.155 595C473.074 587.328 474.188 579.679 475.05 572C475.509 567.911 476.63 563.892 475 560z"/>
<path style="fill:#ceece4; stroke:none;" d="M560 565L560 568C560.696 566.446 560.696 566.554 560 565z"/>
<path style="fill:#fefefe; stroke:none;" d="M479 580C477.878 588.162 474.269 595.958 472.459 604C471.063 610.205 472.778 616.756 471.522 623C470.275 629.195 466.895 634.879 465.41 641C462.838 651.605 462.09 664.119 462 675C464.754 670.97 464.793 664.824 465 660L470 660C471.965 653.771 473.536 648.574 480 646L480 635C480.562 636.801 480.824 638.122 481 640L484 640L484 624L480 624C479.988 620.534 480.125 617.804 478 615C480.049 613.361 484.478 611.045 486 608C487.322 605.357 484.785 600.938 485 599C485.165 597.511 487.167 597.792 488 598L488 592L478 592C481.059 587.697 483.305 585.286 481 580L479 580z"/>
<path style="fill:#a3bce0; stroke:none;" d="M179 582C185.688 588.463 198.371 586 207 586L258 586C267.134 586 277.077 587.125 286 585C282.396 583.53 278.803 584.794 275 584.961C269.02 585.223 262.985 585 257 585L215 585C202.449 585 191.112 585.305 179 582z"/>
<path style="fill:#dbf0ff; stroke:none;" d="M189 586C196.639 589.206 208.729 587 217 587L281 587C273.361 583.794 261.271 586 253 586L189 586z"/>
<path style="fill:#fffbe5; stroke:none;" d="M419 607C416.847 615.338 416.006 624.403 416 633C418.696 626.995 421.412 613.178 419 607z"/>
<path style="fill:#dceffd; stroke:none;" d="M189 631C196.639 634.206 208.729 632 217 632L280 632C272.361 628.794 260.271 631 252 631L189 631z"/>
<path style="fill:#a1bde3; stroke:none;" d="M177 636C180.606 636.989 183.521 634.77 187 633.789C189.947 632.957 192.966 633.005 196 633L249 633C258.179 633 267.877 632.104 277 633.129C287.413 634.299 296.937 640.598 300.043 650.996C302.03 657.647 297.574 664.467 297 671C309.119 658.997 300.046 637.065 285 632.789C277.059 630.532 267.203 632 259 632L208 632C197.308 632 186.543 630.457 177 636z"/>
<path style="fill:#feffff; stroke:none;" d="M675 632C676.229 633.87 676.868 634.224 679 635C677.964 636.186 677.661 636.604 677 638L672 636C671.675 639.226 669.648 641.778 669 645L672 646C670.246 649.371 670.013 652.235 670 656L674 656L673 650L674 649L678 650C676.686 648.382 676.123 648.307 674 648C676.166 646.805 677.553 646.309 680 646C679.387 644.338 678.957 643.517 678 642C687.443 641.29 694.388 645.698 701 652L696 654L696 658C698.881 658.125 699.896 657.942 702 656L699 655C701.587 653.948 703.214 653.757 706 654C706.519 656.93 707.07 657.481 710 658C708.787 663.443 706.362 670.198 712 674L712 667C714.418 667.722 716.472 667.948 719 668L715 662C719.422 663.161 723.429 663.818 728 664C728.176 665.878 728.438 667.199 729 669C733.111 668.646 736.908 669.793 741 670L740 672C745.573 673.293 750.118 675.624 756 676C748.979 669.682 737.361 667.213 729 662.691C716.923 656.16 704.891 649.583 693 642.716C686.938 639.215 681.45 634.783 675 632z"/>
<path style="fill:#9ac3ff; stroke:none;" d="M174 664C177.398 655.982 176.148 646.531 183 640C182.35 638.7 182.853 639 181 639C189.092 636.22 188.61 643.762 190 650L192 650L192 640L259 640C269.945 640 281.089 642.69 291 638C283.862 631.835 272.806 633 264 633L211 633C202.788 633 192.878 631.508 185 634.104C182.298 634.995 178.87 636.112 176.634 637.919C170.107 643.195 164.588 659.066 174 664z"/>
<path style="fill:#9bc3ff; stroke:none;" d="M181 638C181.598 639.195 181.466 638.977 183 640C175.754 644.599 176.295 656.645 174 664C168.959 660.057 168.953 653.901 170 648C167.258 650.396 167.959 654.514 167.805 658C167.397 667.195 176.583 676.259 185.17 678.812C191.181 680.599 197.814 680 204 680L263 680C270.732 680 281.909 682.026 288.999 678.547C299.191 673.546 303.6 655.595 298.136 646.004C296.799 643.657 295.415 640.666 292.867 639.411C288.88 637.448 285.275 641.067 281.285 640.9C267.237 640.316 253.147 640 239 640L192 640L192 650L190 650C189.674 647.523 189.247 639.513 187.359 638.117C185.744 636.924 182.799 637.793 181 638z"/>
<path style="fill:#a0badb; stroke:none;" d="M174 638C171.962 641.32 169.905 644.181 169 648C171.935 645.023 174.28 641.814 176 638L174 638z"/>
<path style="fill:#ffffec; stroke:none;" d="M414 640C409.421 652.228 408 667.03 408 680C411.828 672.035 411.491 661.615 413.2 653C414.045 648.74 415.69 644.142 414 640z"/>
<path style="fill:#fdfffe; stroke:none;" d="M164 648C164.148 652.247 164.965 656.775 164.315 661C163.214 668.151 154.702 681.138 163 687C162.866 690.829 164.82 694.311 166 698L170 696C171.635 698.545 172.994 698.779 176 699L176 688L185 688C185.27 689.761 185.826 690.409 188.023 689.898C194.178 688.469 200.214 686.634 206.741 688.671C213.251 690.703 220.197 690 227 690L260 690C267.305 690 276.967 691.722 284 689.935C289.216 688.61 292.701 684.252 298 683C296.36 678.427 297.703 676.113 302 674L303 659C298.908 667.297 296.083 674.781 287 679.082C276.825 683.9 263.934 682 253 682L210 682C202.997 682 194.818 683.146 188 681.39C172.482 677.395 165.236 662.888 168 648L164 648z"/>
<path style="fill:#9fbad4; stroke:none;" d="M167 650L167 660C168.346 656.793 168.346 653.207 167 650z"/>
<path style="fill:#fff0ce; stroke:none;" d="M463 652L463 656C463.71 654.24 463.71 653.76 463 652z"/>
<path style="fill:#cbddf3; stroke:none;" d="M302 653L302 659C302.951 656.715 302.951 655.285 302 653z"/>
<path style="fill:#a8ded0; stroke:none;" d="M842 655L842 657C848.674 657.438 855.381 660.641 862 662C855.99 664.536 848.462 664.933 842 666L842 668C846.489 667.92 851.675 669.009 856 668.503C858.925 668.161 861.108 665.875 864 665.403C867.962 664.755 873.137 666.078 877 667L876 669C878.2 669.481 878.799 669.481 881 669C883.36 671.26 886.936 669.448 890 669C890.492 672.622 901.337 677.569 905 679C903.492 682.435 901.857 685.739 900 689C900.972 690.27 901.73 691.028 903 692L906 686C906.234 692.007 904.125 697.945 904 704L902 704C901.67 700.782 901.02 698.537 899 696C897.97 699.614 898.238 701.685 900 705C888.928 704.761 872.218 711.703 863 703C860.19 703.559 857.855 703.791 856 706L859 705C856.038 706.46 854.258 706.515 851 706L855 705C851.552 703.211 848.546 704.56 845 703.655C841.781 702.834 839.266 700.316 836 699.475C827.875 697.382 819.005 696.783 811 694.236C801.59 691.243 790.977 683.36 781 685C789.554 690.679 801.272 693.385 811 696.505C828.834 702.225 846.662 707.826 865 711.79C874.845 713.918 887.412 717.791 897 712.861C911.626 705.342 914.796 683.796 902.242 672.786C894.879 666.327 884.205 665.301 875 663.116C864.174 660.546 853.092 655.906 842 655z"/>
<path style="fill:#f4eac7; stroke:none;" d="M462 656L462 661C462.83 658.97 462.83 658.03 462 656z"/>
<path style="fill:#afd7cc; stroke:none;" d="M718 656C723.723 661.802 732.602 665.206 740 668.424C748.939 672.313 757.768 676.858 767 680C762.851 674.234 754.543 674.091 752 667C739.276 668.357 729.652 659.355 718 656z"/>
<path style="fill:#d2eee8; stroke:none;" d="M856.667 658.333C856.222 658.778 857.278 658.722 857.333 658.667C857.778 658.222 856.722 658.278 856.667 658.333z"/>
<path style="fill:#fffde1; stroke:none;" d="M462 661C460.781 667.287 459.275 673.586 459 680L461 680C461.73 674.22 464.283 666.492 462 661z"/>
<path style="fill:#a2bfe7; stroke:none;" d="M170 667C172.889 675.497 180.341 679.922 189 680C184.88 678.075 180.978 676.569 177.286 673.7C174.639 671.643 172.763 668.847 170 667z"/>
<path style="fill:#a2bcd8; stroke:none;" d="M365 667L364 672C366.044 670.376 366.896 669.357 368 667L365 667z"/>
<path style="fill:#fefefe; stroke:none;" d="M741 672C742.312 673.459 743.231 674.157 745 675C744.425 677.396 744.525 677.487 747 678C745.521 678.986 745.797 679 744 679L744 688L760 688C760.022 694.32 760.952 698.477 768 699L768 686C777.469 686.105 787.004 690.286 796 693C796.953 697.72 801.065 696.441 804.91 697.854C808.04 699.004 809.656 701.112 811 704C813.415 703.8 814.76 704.059 817 705C819.715 703.5 821.928 702.44 825 702L824 704L832 704C824.061 698.062 811.318 696.624 802 693.308C781.593 686.045 761.951 677.125 741 672z"/>
<path style="fill:#9fbde3; stroke:none;" d="M331 674C335.776 678.823 342.427 679.864 349 680C344.019 677.011 336.668 675.519 331 674z"/>
<path style="fill:#f0ffff; stroke:none;" d="M906 677C908.048 681.994 910.159 686.463 909.956 692C909.514 704.047 898.847 714.472 887 715.661C876.456 716.718 864.25 711.116 854 709C858.025 715.068 872.178 715.995 879 716L878 718C889.942 718 903.373 716.509 910.826 705.455C912.254 703.337 911.989 700.43 911.999 698C912.025 691.63 913.405 679.593 906 677z"/>
<path style="fill:#cde3f9; stroke:none;" d="M354.667 678.333C354.222 678.778 355.278 678.722 355.333 678.667C355.778 678.222 354.722 678.278 354.667 678.333z"/>
<path style="fill:#bdd6f4; stroke:none;" d="M339 679C340.506 679.683 341.315 679.826 343 680C341.494 679.317 340.685 679.174 339 679z"/>
<path style="fill:#a1bad7; stroke:none;" d="M185 680C193.118 683.407 206.203 681 215 681L282 681C273.882 677.593 260.797 680 252 680L185 680z"/>
<path style="fill:#cbe1ee; stroke:none;" d="M282.667 680.333C282.222 680.778 283.278 680.722 283.333 680.667C283.778 680.222 282.722 680.278 282.667 680.333z"/>
<path style="fill:#e6f5ff; stroke:none;" d="M187 681C194.879 684.306 207.466 682 216 682L280 682C272.121 678.694 259.534 681 251 681L187 681z"/>
<path style="fill:#fff9ea; stroke:none;" d="M406 686C406 694.876 405.122 708.336 416 711C413.319 706.694 410.005 702.877 408.363 698C407.036 694.057 407.576 689.754 406 686z"/>
<path style="fill:#d3ece5; stroke:none;" d="M782.667 686.333C782.222 686.778 783.278 686.722 783.333 686.667C783.778 686.222 782.722 686.278 782.667 686.333z"/>
<path style="fill:#ffffe0; stroke:none;" d="M456 690C455.799 699.438 451.161 704.637 446 712C453.675 708.411 459.518 698.388 456 690z"/>
<path style="fill:#edd6a1; stroke:none;" d="M454 697C448.037 708.607 438.156 716.583 424.17 712.505C420.135 711.328 417.046 708.163 413 707C419.922 716.377 435.103 718.021 445 711.95C449.72 709.054 455.648 702.945 454 697z"/>
<path style="fill:#d4eee7; stroke:none;" d="M867.667 712.333C867.222 712.778 868.278 712.722 868.333 712.667C868.778 712.222 867.722 712.278 867.667 712.333z"/>
<path style="fill:#c0dbd6; stroke:none;" d="M882 715C884.331 715.985 886.457 715.981 889 716C886.465 714.498 884.869 714.392 882 715z"/>
<path style="fill:#f4dfbf; stroke:none;" d="M427 715C429.613 716.098 432.165 715.993 435 716C432.387 714.902 429.836 715.007 427 715z"/>
</svg>
